<svg width="209" height="48" viewBox="0 0 209 48" fill="none" xmlns="http://www.w3.org/2000/svg">
<g filter="url(#filter0_d)">
<path d="M79.512 16C81.144 16 82.456 16.5505 83.448 17.6515C84.456 18.735 84.96 20.2553 84.96 22.2126V30.732H81.6V22.7107C81.6 21.5748 81.336 20.7097 80.808 20.1155C80.28 19.5039 79.56 19.1981 78.648 19.1981C77.736 19.1981 77.008 19.5039 76.464 20.1155C75.936 20.7097 75.672 21.5748 75.672 22.7107V30.732H72.312V22.7107C72.312 21.5748 72.048 20.7097 71.52 20.1155C70.992 19.5039 70.272 19.1981 69.36 19.1981C68.432 19.1981 67.696 19.5039 67.152 20.1155C66.624 20.7097 66.36 21.5748 66.36 22.7107V30.732H63V16.2097H66.36V17.966C66.792 17.3544 67.344 16.8738 68.016 16.5243C68.704 16.1748 69.456 16 70.272 16C71.312 16 72.24 16.2447 73.056 16.734C73.872 17.2058 74.504 17.8874 74.952 18.7786C75.384 17.9398 76.008 17.267 76.824 16.7602C77.656 16.2534 78.552 16 79.512 16Z" fill="white"/>
<path d="M100.632 16.2097L92.4 37.6H88.824L91.704 30.365L86.376 16.2097H90.144L93.576 26.3544L97.056 16.2097H100.632Z" fill="white"/>
<path d="M100.961 30.5447C100.406 30.5447 99.9404 30.3511 99.5642 29.9639C99.1881 29.5767 99 29.0973 99 28.5257C99 27.9542 99.1881 27.4748 99.5642 27.0876C99.9404 26.7004 100.406 26.5068 100.961 26.5068C101.499 26.5068 101.956 26.7004 102.332 27.0876C102.708 27.4748 102.896 27.9542 102.896 28.5257C102.896 29.0973 102.708 29.5767 102.332 29.9639C101.956 30.3511 101.499 30.5447 100.961 30.5447Z" fill="white"/>
<path d="M112.413 17.6843H109.673V30.3511H106.583V17.6843H104.836V15.1122H106.583V14.0335C106.583 12.2819 107.03 11.0097 107.926 10.2169C108.84 9.40563 110.264 9 112.198 9V11.6274C111.267 11.6274 110.613 11.8118 110.237 12.1805C109.861 12.5309 109.673 13.1485 109.673 14.0335V15.1122H112.413V17.6843Z" fill="white"/>
<path d="M116.686 13.0932C116.131 13.0932 115.665 12.8996 115.289 12.5124C114.913 12.1252 114.725 11.6458 114.725 11.0743C114.725 10.5027 114.913 10.0233 115.289 9.63611C115.665 9.24891 116.131 9.05531 116.686 9.05531C117.224 9.05531 117.68 9.24891 118.057 9.63611C118.433 10.0233 118.621 10.5027 118.621 11.0743C118.621 11.6458 118.433 12.1252 118.057 12.5124C117.68 12.8996 117.224 13.0932 116.686 13.0932ZM118.191 15.1122V30.3511H115.128V15.1122H118.191Z" fill="white"/>
<path d="M129.682 14.8633C130.846 14.8633 131.885 15.1122 132.799 15.61C133.73 16.1078 134.456 16.8453 134.975 17.8225C135.495 18.7997 135.754 19.9798 135.754 21.3626V30.3511H132.718V21.8328C132.718 20.4684 132.387 19.4266 131.724 18.7076C131.061 17.97 130.157 17.6013 129.01 17.6013C127.864 17.6013 126.95 17.97 126.27 18.7076C125.607 19.4266 125.275 20.4684 125.275 21.8328V30.3511H122.212V15.1122H125.275V16.8545C125.777 16.2277 126.413 15.7391 127.183 15.3887C127.971 15.0384 128.804 14.8633 129.682 14.8633Z" fill="white"/>
<path d="M138.64 22.6625C138.64 21.1321 138.945 19.777 139.554 18.5969C140.181 17.4169 141.023 16.5042 142.08 15.8589C143.154 15.1951 144.337 14.8633 145.626 14.8633C146.791 14.8633 147.803 15.1029 148.662 15.5823C149.54 16.0433 150.239 16.6241 150.758 17.3247V15.1122H153.848V30.3511H150.758V28.0832C150.239 28.8023 149.531 29.4015 148.636 29.8809C147.74 30.3603 146.719 30.6 145.573 30.6C144.301 30.6 143.136 30.2681 142.08 29.6044C141.023 28.9222 140.181 27.9818 139.554 26.7834C138.945 25.5665 138.64 24.1928 138.64 22.6625ZM150.758 22.7178C150.758 21.6668 150.543 20.7542 150.113 19.9798C149.701 19.2054 149.155 18.6154 148.474 18.2097C147.794 17.8041 147.059 17.6013 146.271 17.6013C145.483 17.6013 144.749 17.8041 144.068 18.2097C143.387 18.5969 142.832 19.1777 142.402 19.9521C141.99 20.7081 141.784 21.6115 141.784 22.6625C141.784 23.7134 141.99 24.6353 142.402 25.4282C142.832 26.221 143.387 26.8294 144.068 27.2535C144.766 27.6592 145.501 27.862 146.271 27.862C147.059 27.862 147.794 27.6592 148.474 27.2535C149.155 26.8479 149.701 26.2579 150.113 25.4835C150.543 24.6907 150.758 23.7688 150.758 22.7178Z" fill="white"/>
<path d="M165.341 14.8633C166.505 14.8633 167.544 15.1122 168.458 15.61C169.389 16.1078 170.115 16.8453 170.634 17.8225C171.154 18.7997 171.413 19.9798 171.413 21.3626V30.3511H168.377V21.8328C168.377 20.4684 168.046 19.4266 167.383 18.7076C166.72 17.97 165.816 17.6013 164.669 17.6013C163.523 17.6013 162.609 17.97 161.929 18.7076C161.266 19.4266 160.934 20.4684 160.934 21.8328V30.3511H157.871V15.1122H160.934V16.8545C161.436 16.2277 162.072 15.7391 162.842 15.3887C163.63 15.0384 164.463 14.8633 165.341 14.8633Z" fill="white"/>
<path d="M174.299 22.7178C174.299 21.1506 174.604 19.777 175.213 18.5969C175.84 17.3985 176.7 16.4766 177.792 15.8312C178.885 15.1859 180.139 14.8633 181.554 14.8633C183.345 14.8633 184.823 15.3058 185.987 16.1908C187.17 17.0574 187.967 18.3019 188.379 19.9245H185.074C184.805 19.1685 184.375 18.5785 183.784 18.1544C183.193 17.7303 182.45 17.5183 181.554 17.5183C180.3 17.5183 179.297 17.9793 178.545 18.9012C177.81 19.8046 177.443 21.0768 177.443 22.7178C177.443 24.3588 177.81 25.6402 178.545 26.5621C179.297 27.484 180.3 27.9449 181.554 27.9449C183.327 27.9449 184.501 27.1429 185.074 25.5388H188.379C187.949 27.0876 187.143 28.3229 185.96 29.2448C184.778 30.1483 183.309 30.6 181.554 30.6C180.139 30.6 178.885 30.2773 177.792 29.632C176.7 28.9682 175.84 28.0464 175.213 26.8663C174.604 25.6679 174.299 24.285 174.299 22.7178Z" fill="white"/>
<path d="M205 22.3583C205 22.9298 204.964 23.4461 204.893 23.907H193.581C193.67 25.1239 194.109 26.1012 194.897 26.8387C195.685 27.5762 196.653 27.9449 197.799 27.9449C199.447 27.9449 200.611 27.2351 201.292 25.8154H204.597C204.149 27.2166 203.334 28.369 202.152 29.2725C200.988 30.1575 199.537 30.6 197.799 30.6C196.384 30.6 195.112 30.2773 193.984 29.632C192.873 28.9682 191.995 28.0464 191.351 26.8663C190.724 25.6679 190.41 24.285 190.41 22.7178C190.41 21.1506 190.715 19.777 191.324 18.5969C191.951 17.3985 192.819 16.4766 193.93 15.8312C195.059 15.1859 196.348 14.8633 197.799 14.8633C199.196 14.8633 200.441 15.1767 201.534 15.8036C202.627 16.4305 203.477 17.3155 204.086 18.4586C204.695 19.5834 205 20.8832 205 22.3583ZM201.803 21.3626C201.785 20.201 201.382 19.2699 200.593 18.5693C199.805 17.8686 198.829 17.5183 197.665 17.5183C196.608 17.5183 195.703 17.8686 194.951 18.5693C194.199 19.2515 193.751 20.1826 193.608 21.3626H201.803Z" fill="white"/>
<path d="M38.1422 5.85781C34.3647 2.08031 29.3422 0 24 0C18.6578 0 13.6353 2.08031 9.85781 5.85781C6.08031 9.63531 4 14.6578 4 20C4 25.3422 6.08039 30.3646 9.85781 34.1422C13.6352 37.9198 18.6578 40 24 40C29.3422 40 34.3647 37.9197 38.1422 34.1422C41.9197 30.3647 44 25.3422 44 20C44 14.6578 41.9196 9.63539 38.1422 5.85781Z" fill="#33CC95"/>
<g clip-path="url(#clip0)">
<path d="M24.5714 8V33.1429" stroke="white" stroke-width="2" stroke-linecap="round" stroke-linejoin="round"/>
<path d="M30.2857 12.5714H21.7143C20.6534 12.5714 19.636 12.9929 18.8859 13.743C18.1357 14.4931 17.7143 15.5106 17.7143 16.5714C17.7143 17.6323 18.1357 18.6497 18.8859 19.3999C19.636 20.15 20.6534 20.5714 21.7143 20.5714H27.4286C28.4894 20.5714 29.5069 20.9929 30.257 21.743C31.0072 22.4932 31.4286 23.5106 31.4286 24.5714C31.4286 25.6323 31.0072 26.6497 30.257 27.3999C29.5069 28.15 28.4894 28.5714 27.4286 28.5714H17.7143" stroke="white" stroke-width="2" stroke-linecap="round" stroke-linejoin="round"/>
</g>
</g>
<defs>
<filter id="filter0_d" x="0" y="0" width="209" height="48" filterUnits="userSpaceOnUse" color-interpolation-filters="sRGB">
<feFlood flood-opacity="0" result="BackgroundImageFix"/>
<feColorMatrix in="SourceAlpha" type="matrix" values="0 0 0 0 0 0 0 0 0 0 0 0 0 0 0 0 0 0 127 0"/>
<feOffset dy="4"/>
<feGaussianBlur stdDeviation="2"/>
<feColorMatrix type="matrix" values="0 0 0 0 0 0 0 0 0 0 0 0 0 0 0 0 0 0 0.25 0"/>
<feBlend mode="normal" in2="BackgroundImageFix" result="effect1_dropShadow"/>
<feBlend mode="normal" in="SourceGraphic" in2="effect1_dropShadow" result="shape"/>
</filter>
<clipPath id="clip0">
<rect width="27.4286" height="27.4286" fill="white" transform="translate(10.8571 6.85714)"/>
</clipPath>
</defs>
</svg>
